<svg xmlns="http://www.w3.org/2000/svg" viewBox="0 0 225.25 338.68"><defs><style>.cls-1{fill:#7b84af;}.cls-2{fill:#a5c4c6;}.cls-3{fill:#bdd1d1;}.cls-4{fill:#b8d0d1;}.cls-5{fill:#a1e5df;}.cls-11,.cls-5,.cls-6,.cls-7{opacity:0.63;}.cls-6{fill:#bfefe9;}.cls-7{fill:#7fdbd4;}.cls-8{fill:#748c8c;}.cls-9{fill:#1f9390;}.cls-10{fill:#51bcb7;}.cls-11{fill:#dcf7f3;}.cls-12{fill:#c1d3d3;}.cls-13{fill:#87ddd4;}.cls-14{fill:#8e9abc;}</style></defs><g id="Layer_2" data-name="Layer 2"><g id="Layer_357" data-name="Layer 357"><ellipse cx="50.2" cy="188" rx="9.99" ry="15.94"/><ellipse class="cls-1" cx="50.2" cy="188" rx="6.66" ry="12.61"/><path d="M25,216.7l25.39-20.24A9.28,9.28,0,1,0,38.85,182L13.46,202.2A9.28,9.28,0,1,0,25,216.7Z"/><path class="cls-2" d="M40.93,184.56a5.95,5.95,0,0,1,7.41,9.3L23,214.1a5.95,5.95,0,0,1-7.42-9.3Z"/><path class="cls-3" d="M31.92,193.56l2.66-2.12c.36,2.95,3.87,6,5.05,6.93l-2.86,2.27C33,198.13,32.09,195.18,31.92,193.56Z"/><path class="cls-3" d="M44.3,194.64l-2.82,2.25a14.57,14.57,0,0,1-5.35-6.68l2.8-2.24C40.11,191.38,43.19,193.84,44.3,194.64Z"/><path class="cls-3" d="M27.27,197.27l3.13-2.5a10.23,10.23,0,0,0,4.93,7l-2.48,2C30.78,202.8,28.09,198.6,27.27,197.27Z"/><path class="cls-3" d="M18.91,203.93l2.48-2c.45,2.89,3.91,6,5.07,6.92L23.8,211C20.07,208.41,19.13,205.51,18.91,203.93Z"/><path class="cls-3" d="M17.51,205.07a10.91,10.91,0,0,0,4.89,7c-2.18,1.29-4.78,1.12-6.1-.53S15.46,206.93,17.51,205.07Z"/><path class="cls-3" d="M22.83,200.81l2.62-2.09a16.21,16.21,0,0,0,5.36,6.68l-2.63,2.09A15.72,15.72,0,0,1,22.83,200.81Z"/><path class="cls-3" d="M40.91,186.41c2.28-1.68,5.22-1.63,6.64.16s.87,4.45-1.07,6.3C44.35,191.93,41.72,187.76,40.91,186.41Z"/><path d="M70.36,247.18c3.49-5.38,5.55-12.14,5-17.83-.47-5.21-3-9.15-7.22-11.09-13.26-6.16-39.26-11.95-49.84-7A9.88,9.88,0,0,0,14,215.92a9.56,9.56,0,0,0-.82,6.52c3.22,11.21,24.42,27.25,37.6,33.36,4.18,1.95,8.85,1.36,13.13-1.65A25.27,25.27,0,0,0,70.36,247.18Z"/><path class="cls-2" d="M17.55,216.33a5.58,5.58,0,0,1,2.2-2.07c8.82-4.11,32.94.48,47,7,3.92,1.82,5,5.55,5.3,8.36.67,7.49-4,17.47-10.11,21.79-2.31,1.62-5.89,3.17-9.81,1.35h0c-14-6.5-33.11-21.89-35.8-31.26a6.57,6.57,0,0,1,.64-4.19A8.62,8.62,0,0,1,17.55,216.33Z"/><path class="cls-4" d="M24,219.06a4.22,4.22,0,0,1,1.67-1.58c6.71-3.13,25.08.37,35.81,5.35a7.31,7.31,0,0,1,4,6.37c.51,5.7-3,13.29-7.69,16.58a7.33,7.33,0,0,1-7.48,1h0c-10.66-4.95-25.2-16.67-27.25-23.8a4.92,4.92,0,0,1,.49-3.19A4.63,4.63,0,0,1,24,219.06Z"/><circle cx="12.25" cy="216.07" r="12.25"/><circle class="cls-1" cx="12.25" cy="216.07" r="8.92"/><path d="M69.24,256.49a6.43,6.43,0,0,0-1.9-8.88l-14-9.06a6.43,6.43,0,0,0-7,10.79l14,9A6.44,6.44,0,0,0,69.24,256.49Z"/><path class="cls-1" d="M47.28,242.26a3.1,3.1,0,0,1,4.28-.92l14,9.07a3.09,3.09,0,1,1-3.37,5.19l-14-9.07A3.09,3.09,0,0,1,47.28,242.26Z"/><path d="M78.53,248.88a7.06,7.06,0,0,0,.52-1,6.43,6.43,0,0,0-3.39-8.43h0l-15.32-6.53a6.42,6.42,0,0,0-5,11.82l15.32,6.53a6.46,6.46,0,0,0,7.91-2.41Z"/><path class="cls-1" d="M74.36,242.54a3.09,3.09,0,0,1-2.43,5.69l-15.32-6.54A3.1,3.1,0,0,1,55,237.64,3,3,0,0,1,56.67,236,3.09,3.09,0,0,1,59,236Z"/><path d="M80.32,236.24a6.48,6.48,0,0,0,1-2.51,6.44,6.44,0,0,0-5.38-7.32h0l-16.46-2.52a6.42,6.42,0,0,0-1.94,12.7L74,239.1a6.36,6.36,0,0,0,4.77-1.17A6.58,6.58,0,0,0,80.32,236.24Z"/><path class="cls-1" d="M75.39,229.7a3.08,3.08,0,0,1,1.36,5.54,3.06,3.06,0,0,1-2.3.57L58,233.29a3.09,3.09,0,0,1,.94-6.11Z"/><path d="M64.38,211.94a6.42,6.42,0,0,0-8.06-.34,6.42,6.42,0,0,0-2.54,4.21h0l-2.47,16.47A6.43,6.43,0,0,0,64,234.18l2.47-16.47A6.38,6.38,0,0,0,65.3,213,6.87,6.87,0,0,0,64.38,211.94Z"/><path class="cls-1" d="M57.08,216.3a3.09,3.09,0,0,1,6.11.92l-2.46,16.47a3.09,3.09,0,0,1-6.12-.92Z"/><ellipse cx="175.06" cy="188" rx="9.99" ry="15.94"/><ellipse class="cls-1" cx="175.06" cy="188" rx="6.66" ry="12.61"/><path d="M200.23,216.7l-25.39-20.24A9.28,9.28,0,0,1,186.4,182l25.4,20.25a9.28,9.28,0,1,1-11.57,14.5Z"/><path class="cls-2" d="M184.33,184.56a5.95,5.95,0,0,0-7.42,9.3L202.3,214.1a5.95,5.95,0,1,0,7.42-9.3Z"/><path class="cls-3" d="M193.34,193.56l-2.67-2.12c-.36,2.95-3.86,6-5,6.93l2.85,2.27C192.29,198.13,193.17,195.18,193.34,193.56Z"/><path class="cls-3" d="M181,194.64l2.82,2.25a14.69,14.69,0,0,0,5.36-6.68L186.32,188C185.15,191.38,182.07,193.84,181,194.64Z"/><path class="cls-3" d="M198,197.27l-3.13-2.5a10.23,10.23,0,0,1-4.93,7l2.48,2C194.48,202.8,197.17,198.6,198,197.27Z"/><path class="cls-3" d="M206.34,203.93l-2.48-2c-.45,2.89-3.9,6-5.07,6.92l2.66,2.12C205.18,208.41,206.12,205.51,206.34,203.93Z"/><path class="cls-3" d="M207.75,205.07a10.92,10.92,0,0,1-4.9,7c2.19,1.29,4.78,1.12,6.1-.53S209.8,206.93,207.75,205.07Z"/><path class="cls-3" d="M202.43,200.81l-2.62-2.09a16.21,16.21,0,0,1-5.36,6.68l2.62,2.09A15.77,15.77,0,0,0,202.43,200.81Z"/><path class="cls-3" d="M184.35,186.41c-2.29-1.68-5.22-1.63-6.65.16s-.87,4.45,1.08,6.3C180.9,191.93,183.54,187.76,184.35,186.41Z"/><path d="M154.89,247.18c-3.49-5.38-5.54-12.14-5-17.83.46-5.21,3-9.15,7.21-11.09,13.26-6.16,39.27-11.95,49.84-7a9.77,9.77,0,0,1,4.36,4.68,9.56,9.56,0,0,1,.82,6.52c-3.22,11.21-24.42,27.25-37.59,33.36-4.19,1.95-8.85,1.36-13.13-1.65A25.15,25.15,0,0,1,154.89,247.18Z"/><path class="cls-2" d="M207.7,216.33a5.62,5.62,0,0,0-2.19-2.07c-8.82-4.11-32.94.48-47,7-3.93,1.82-5,5.55-5.3,8.36-.67,7.49,4,17.47,10.1,21.79,2.31,1.62,5.89,3.17,9.82,1.35h0c14-6.5,33.1-21.89,35.79-31.26a6.44,6.44,0,0,0-.64-4.19A7.35,7.35,0,0,0,207.7,216.33Z"/><path class="cls-4" d="M201.26,219.06a4.36,4.36,0,0,0-1.67-1.58c-6.72-3.13-25.08.37-35.81,5.35a7.32,7.32,0,0,0-4,6.37c-.51,5.7,3,13.29,7.7,16.58a7.31,7.31,0,0,0,7.47,1h0c10.67-4.95,25.2-16.67,27.26-23.8a4.92,4.92,0,0,0-.5-3.19A5.48,5.48,0,0,0,201.26,219.06Z"/><circle cx="213" cy="216.07" r="12.25"/><circle class="cls-1" cx="213" cy="216.07" r="8.92"/><path d="M156,256.49a6.42,6.42,0,0,1,1.9-8.88l14-9.06a6.43,6.43,0,0,1,7,10.79l-14,9A6.42,6.42,0,0,1,156,256.49Z"/><path class="cls-1" d="M178,242.26a3.09,3.09,0,0,0-4.27-.92l-14,9.07a3.09,3.09,0,0,0,3.37,5.19l14-9.07A3.09,3.09,0,0,0,178,242.26Z"/><path d="M146.72,248.88a7.06,7.06,0,0,1-.52-1,6.46,6.46,0,0,1,3.39-8.43h0l15.32-6.53a6.42,6.42,0,0,1,5,11.82l-15.32,6.53a6.34,6.34,0,0,1-4.91,0A6.4,6.4,0,0,1,146.72,248.88Z"/><path class="cls-1" d="M150.9,242.54a3.09,3.09,0,0,0,2.42,5.69l15.32-6.54a3.11,3.11,0,0,0,1.64-4.05,3.13,3.13,0,0,0-4.06-1.64Z"/><path d="M144.94,236.24a6.43,6.43,0,0,1,4.42-9.83h0l16.46-2.52a6.42,6.42,0,0,1,2,12.7l-16.46,2.51a6.41,6.41,0,0,1-6.37-2.86Z"/><path class="cls-1" d="M149.87,229.7a3.09,3.09,0,0,0-2.59,3.52,3.11,3.11,0,0,0,3.52,2.59l16.46-2.52a3.08,3.08,0,0,0,2.59-3.52,3,3,0,0,0-1.23-2,3.08,3.08,0,0,0-2.29-.57Z"/><path d="M160.88,211.94a6.43,6.43,0,0,1,10.59,3.87h0l2.47,16.47a6.43,6.43,0,0,1-12.71,1.9l-2.47-16.47A6.35,6.35,0,0,1,160,213,5.91,5.91,0,0,1,160.88,211.94Z"/><path class="cls-1" d="M168.18,216.3a3.09,3.09,0,0,0-1.23-2,3.09,3.09,0,0,0-4.89,2.94l2.47,16.47a3,3,0,0,0,1.22,2,3.1,3.1,0,0,0,2.3.58,3.12,3.12,0,0,0,2.6-3.52Z"/><ellipse class="cls-5" cx="112.75" cy="316.32" rx="30.45" ry="9.37"/><ellipse class="cls-6" cx="112.03" cy="316.32" rx="23.55" ry="6.66"/><ellipse class="cls-7" cx="112.75" cy="298.71" rx="41.75" ry="12.85"/><ellipse class="cls-5" cx="112.75" cy="297.52" rx="35.57" ry="9.75"/><path d="M175.26,162.65a11.43,11.43,0,0,0-2.41-3.46,16.48,16.48,0,0,0-1.27-1.37,25.42,25.42,0,0,0-12.14-6.15c-.88-.32-1.8-.62-2.76-.92-11.84-3.69-27.54-5.72-44.23-5.72s-32.39,2-44.23,5.72q-1.5.47-2.88,1a25.33,25.33,0,0,0-12,6.11c-.33.32-.64.65-1,1a11.81,11.81,0,0,0-2.94,4.2c-2.43,4.53-3.62,10.38-3.62,17.71,0,27.32,15.37,74,40.09,94.26a8.11,8.11,0,0,0-.6,3c0,3.6,2.42,6.84,6.45,9.33a21.17,21.17,0,0,0,41.34,0c4-2.48,6.45-5.73,6.45-9.33a8.14,8.14,0,0,0-.7-3.29c10-8.24,19.33-21.46,26.8-38.27,8.26-18.57,13.39-39.93,13.39-55.74C179.09,173.2,177.83,167.23,175.26,162.65Z"/><path class="cls-8" d="M155.69,153.93c7.26,2.26,12.51,5.08,15.11,8a18.27,18.27,0,0,1,1.34,2,4.89,4.89,0,0,1,.5,2.09c0,4.23-6.34,8.73-16.95,12-11.52,3.59-26.88,5.57-43.24,5.57s-31.72-2-43.24-5.57c-10.61-3.3-16.95-7.8-16.95-12a4.64,4.64,0,0,1,.3-1.62,18.46,18.46,0,0,1,2-3c2.74-2.72,7.79-5.34,14.61-7.46,11.52-3.59,26.88-5.57,43.24-5.57S144.17,150.34,155.69,153.93Z"/><path class="cls-9" d="M112.48,300.62a17.86,17.86,0,0,1-16.56-11.23,45,45,0,0,0,16.56,2.9,45,45,0,0,0,16.56-2.9A17.86,17.86,0,0,1,112.48,300.62Z"/><path class="cls-1" d="M112.48,289c-12.9,0-23.79-5-23.79-10.94a4.31,4.31,0,0,1,.09-.88,47.67,47.67,0,0,0,5.28,3.3c5.47,2.91,13,3.52,18.42,3.52,3.33,0,11.73-.34,17.86-3.51a46.16,46.16,0,0,0,5.79-3.59,5,5,0,0,1,.14,1.16C136.27,284,125.38,289,112.48,289Z"/><path class="cls-2" d="M162.66,235.11c-9.26,20.83-21.28,35.88-33.85,42.38-5.48,2.84-13.25,3.14-16.33,3.14-5,0-12-.54-16.85-3.13-12.47-6.64-24.36-21.75-33.51-42.56C54.15,216.8,49.2,196,49.2,180.72a44.09,44.09,0,0,1,1.06-10.24c2.52,4.14,8.6,7.79,18,10.7,11.84,3.69,27.55,5.72,44.23,5.72s32.39-2,44.23-5.72c9.41-2.93,15.51-6.6,18-10.77a44,44,0,0,1,1.08,10.31C175.76,196.09,170.74,216.93,162.66,235.11Z"/><path class="cls-4" d="M159.34,234.48c-8.65,19.44-19.88,33.5-31.61,39.57-5.12,2.65-12.37,2.94-15.25,2.94-4.67,0-11.19-.51-15.74-2.93-11.63-6.2-22.75-20.31-31.28-39.74C58,217.38,53.39,198,53.39,183.68c0-3.62.66-3.78,9.4-1.06,11.05,3.44,34.08,6.84,49.66,6.84s39.2-3.4,50.26-6.84c8.78-2.74,8.86-2.59,8.86,1.06C171.57,198,166.88,217.5,159.34,234.48Z"/><path class="cls-10" d="M112.48,299.38c-5.85,0-10.87-3.23-12.92-7.8a42.53,42.53,0,0,0,25.84,0C123.35,296.15,118.33,299.38,112.48,299.38Z"/><ellipse class="cls-6" cx="112.75" cy="332.97" rx="18.56" ry="5.71"/><ellipse class="cls-11" cx="112.31" cy="332.97" rx="14.35" ry="4.06"/><path d="M125.09,152V139a12.85,12.85,0,1,0-25.69,0v13.2c-4.52,1.95-6.67,4.9-6.67,7.73,0,5.2,6.79,10.47,19.75,10.47s19.75-5.27,19.75-10.47C132.23,157,129.93,154,125.09,152Z"/><path class="cls-2" d="M112.59,141a33,33,0,0,0,9.17-1.32v6.21c-3.16,1-11.05,2.9-19-1v-5.55A29.59,29.59,0,0,0,112.59,141Z"/><path class="cls-2" d="M113.21,150.62a31,31,0,0,0,8.55-1.23v6.16c-1.9,1.28-8.46,4.69-19-.22v-6.78A26.94,26.94,0,0,0,113.21,150.62Z"/><path class="cls-2" d="M112.24,129.5a9.52,9.52,0,0,1,9.12,6.82,28.46,28.46,0,0,1-18.13-.34A9.54,9.54,0,0,1,112.24,129.5Z"/><path class="cls-1" d="M112.48,167.09c-11.2,0-16.41-4.26-16.41-7.14,0-1.27,1.07-2.77,3.33-4v.23c0,1.52.79,3.63,4.58,5a24.88,24.88,0,0,0,8.26,1.25c5.93,0,12.85-1.64,12.85-6.27v-.49c2.58,1.31,3.81,2.94,3.81,4.29C128.9,162.83,123.68,167.09,112.48,167.09Z"/><path class="cls-3" d="M112.26,130.93a6.19,6.19,0,0,1,5.93,4.43,18.5,18.5,0,0,1-11.79-.22A6.19,6.19,0,0,1,112.26,130.93Z"/><path class="cls-3" d="M112.51,142.67a37.9,37.9,0,0,0,7-.64v3a30.67,30.67,0,0,1-14.54-.48v-2.67A35.1,35.1,0,0,0,112.51,142.67Z"/><path class="cls-3" d="M112.59,152.81a22.41,22.41,0,0,0,6.92-1.26v3a17.75,17.75,0,0,1-14.54-.48v-2.66A32.27,32.27,0,0,0,112.59,152.81Z"/><path d="M173.71,119c0-8.23-1.73-17.93-4.77-27.77,0-.59.07-1.17.07-1.77a26.6,26.6,0,0,0-8.82-19.79c-1-1.92-2-3.81-3.06-5.64-11.91-20.53-26.44-31.84-40.93-31.84S87.17,43.49,75.27,64c-1.07,1.83-2.08,3.72-3.07,5.64a26.6,26.6,0,0,0-8.82,19.79c0,.6,0,1.18.07,1.77-3,9.84-4.77,19.54-4.77,27.77a14,14,0,0,0,.54,3.78,72.69,72.69,0,0,0-.54,8.36c0,7.91,6.42,14.45,18.55,18.91,10.3,3.8,24.14,5.89,39,5.89s28.66-2.09,39-5.89c12.13-4.46,18.54-11,18.54-18.91a72.38,72.38,0,0,0-.54-8.35A13.77,13.77,0,0,0,173.71,119Z"/><path class="cls-2" d="M170.38,117.55c0-7.76-1.63-16.89-4.49-26.17,0-.55-10.13-23.89-11.13-25.62-11.22-19.34-24.91-30-38.56-30s-27.35,10.66-38.56,30c-1,1.73-11.17,25.07-11.14,25.62C63.64,100.66,62,109.79,62,117.55a12.87,12.87,0,0,0,.51,3.56A68.4,68.4,0,0,0,62,129c0,7.45,6.05,13.61,17.47,17.82,9.71,3.58,22.75,5.54,36.72,5.54s27-2,36.71-5.54c11.43-4.21,17.47-10.37,17.47-17.82a66.22,66.22,0,0,0-.51-7.87A12.87,12.87,0,0,0,170.38,117.55Z"/><path class="cls-4" d="M148.69,71.55c-5.14-9.6-20.66-20.84-32-20.87s-24.63,7.85-32,20.87-13,42.27-13,44c0,5.18,1.88,18.23,44.44,18.23s45.49-13,45.49-18.23C161.66,113.82,161.66,98.94,148.69,71.55Z"/><ellipse class="cls-12" cx="116.7" cy="65.16" rx="16.44" ry="7.6"/><path d="M121.91,30.4v-5a13.33,13.33,0,1,0-11.42,0v5c-4.13,1.4-6.9,4.27-6.9,7.66,0,4.81,5.54,8.57,12.61,8.57s12.61-3.76,12.61-8.57C128.81,34.67,126,31.8,121.91,30.4Z"/><circle class="cls-9" cx="116.2" cy="13.32" r="9.99"/><path class="cls-2" d="M116.1,26.65a13.23,13.23,0,0,0,2.37-.27l.16,7.83a2.38,2.38,0,1,1-4.76.09l-.15-7.82A14.34,14.34,0,0,0,116.1,26.65Z"/><path class="cls-1" d="M116.2,43.3c-5,0-9.28-2.4-9.28-5.24,0-1.63,1.41-3.11,3.57-4.08v.28a5.71,5.71,0,1,0,11.42,0V34c2.15,1,3.56,2.45,3.56,4.08C125.47,40.9,121.23,43.3,116.2,43.3Z"/><circle class="cls-10" cx="116.2" cy="13.32" r="8.46"/><ellipse class="cls-13" cx="116.2" cy="10.04" rx="5.13" ry="3.28"/><path class="cls-3" d="M116.13,28a9.4,9.4,0,0,0,1.69-.19l.11,5.59a1.7,1.7,0,1,1-3.39.07l-.11-5.59A9.52,9.52,0,0,0,116.13,28Z"/><path class="cls-14" d="M116.3,42.34c-5.71,0-8.09-2.54-8.08-4.28s1.9-2.38,1.9-2.38c0,3.33,3.86,5.24,6.18,5.24a5.75,5.75,0,0,0,6.19-5.71c.74.33,2.49,1.85,1.9,3.33C123.44,40.92,120.59,42.34,116.3,42.34Z"/></g></g></svg>