<svg xmlns="http://www.w3.org/2000/svg" viewBox="0 0 225.25 338.68"><defs><style>.cls-1{fill:#a1e5df;}.cls-1,.cls-14,.cls-2,.cls-3{opacity:0.63;}.cls-2{fill:#bfefe9;}.cls-3{fill:#7fdbd4;}.cls-4{fill:#748c8c;}.cls-5{fill:#1f9390;}.cls-6{fill:#7b84af;}.cls-7{fill:#a5c4c6;}.cls-8{fill:#b8d0d1;}.cls-9{fill:#8e9abc;}.cls-10{fill:#0f4a86;}.cls-11{fill:#51bcb7;}.cls-12{fill:#1f5b8c;}.cls-13{fill:#3374a0;}.cls-14{fill:#dcf7f3;}.cls-15{fill:#bdd1d1;}.cls-16{fill:#7e9a9b;}.cls-17{fill:#172121;}.cls-18{fill:#87ddd4;}.cls-19{fill:#dfedf7;}.cls-20{fill:#fff;}</style></defs><g id="Layer_2" data-name="Layer 2"><g id="Layer_357" data-name="Layer 357"><ellipse class="cls-1" cx="112.59" cy="316.32" rx="30.45" ry="9.37"/><ellipse class="cls-2" cx="111.87" cy="316.32" rx="23.55" ry="6.66"/><ellipse class="cls-3" cx="112.59" cy="298.71" rx="41.75" ry="12.85"/><ellipse class="cls-1" cx="112.59" cy="297.52" rx="35.57" ry="9.75"/><path d="M175.1,162.65a11.61,11.61,0,0,0-2.41-3.46c-.41-.48-.83-.94-1.27-1.37a25.42,25.42,0,0,0-12.14-6.15c-.89-.32-1.8-.62-2.76-.92C144.68,147.06,129,145,112.29,145s-32.4,2-44.23,5.72c-1,.31-2,.63-2.89,1a25.29,25.29,0,0,0-12,6.11c-.33.32-.65.65-.95,1a11.68,11.68,0,0,0-2.94,4.2c-2.43,4.53-3.62,10.38-3.62,17.71,0,27.32,15.37,74,40.08,94.26a8.31,8.31,0,0,0-.59,3c0,3.6,2.41,6.84,6.45,9.33a21.16,21.16,0,0,0,41.33,0c4-2.48,6.46-5.73,6.46-9.33a8.3,8.3,0,0,0-.7-3.29c10-8.24,19.32-21.46,26.8-38.27,8.26-18.57,13.39-39.93,13.39-55.74C178.93,173.2,177.67,167.23,175.1,162.65Z"/><path class="cls-4" d="M155.53,153.93c7.26,2.26,12.51,5.08,15.11,8a18.27,18.27,0,0,1,1.34,2,4.89,4.89,0,0,1,.5,2.09c0,4.23-6.34,8.73-16.95,12-11.53,3.59-26.88,5.57-43.24,5.57s-31.72-2-43.24-5.57c-10.62-3.3-16.95-7.8-16.95-12a4.64,4.64,0,0,1,.3-1.62,18.46,18.46,0,0,1,2-3c2.74-2.72,7.79-5.34,14.61-7.46,11.52-3.59,26.88-5.57,43.24-5.57S144,150.34,155.53,153.93Z"/><path class="cls-5" d="M112.32,300.62a17.89,17.89,0,0,1-16.57-11.23,45.12,45.12,0,0,0,16.57,2.9,45,45,0,0,0,16.56-2.9A17.86,17.86,0,0,1,112.32,300.62Z"/><path class="cls-6" d="M112.32,289c-12.9,0-23.79-5-23.79-10.94a4.31,4.31,0,0,1,.09-.88,47.67,47.67,0,0,0,5.28,3.3c5.47,2.91,13,3.52,18.42,3.52,3.33,0,11.73-.34,17.86-3.51a45.35,45.35,0,0,0,5.78-3.59,4.56,4.56,0,0,1,.15,1.16C136.11,284,125.21,289,112.32,289Z"/><path class="cls-7" d="M162.5,235.11c-9.27,20.83-21.29,35.88-33.85,42.38-5.48,2.84-13.25,3.14-16.33,3.14-5,0-12-.54-16.85-3.13C83,270.86,71.1,255.75,62,234.94,54,216.8,49,196,49,180.72a44.09,44.09,0,0,1,1.06-10.24c2.52,4.14,8.6,7.79,18,10.7,11.83,3.69,27.54,5.72,44.23,5.72s32.39-2,44.23-5.72c9.41-2.93,15.51-6.6,18-10.77a44,44,0,0,1,1.08,10.31C175.6,196.09,170.58,216.93,162.5,235.11Z"/><path class="cls-8" d="M159.17,234.48c-8.64,19.44-19.87,33.5-31.6,39.57-5.12,2.65-12.37,2.94-15.25,2.94-4.67,0-11.2-.51-15.74-2.93-11.64-6.2-22.75-20.31-31.29-39.74C57.85,217.38,53.23,198,53.23,183.68c0-3.62.66-3.78,9.4-1.06,11.05,3.44,34.08,6.84,49.66,6.84s39.2-3.4,50.26-6.84c8.78-2.74,8.86-2.59,8.86,1.06C171.41,198,166.72,217.5,159.17,234.48Z"/><path class="cls-7" d="M112,272.79c-5.79,0-11.54-.51-13.82-1.53C84.55,265.11,73.37,249,65,223.38A226.55,226.55,0,0,1,56.46,187a1.74,1.74,0,0,1,2.23-1.89,216.12,216.12,0,0,0,53.62,7.84c31.37.49,53.58-7.72,53.8-7.8a1.73,1.73,0,0,1,2.34,1.79,198,198,0,0,1-7.75,36.26c-8.14,25.56-19.82,41.73-34.72,48.08C123.58,272.28,117.79,272.79,112,272.79Z"/><path d="M112,270.93c-5.54,0-11.05-.49-13.23-1.47C85.74,263.57,75,248.15,67,223.62a215.65,215.65,0,0,1-8.15-34.86,1.66,1.66,0,0,1,.57-1.49A1.7,1.7,0,0,1,61,187a207,207,0,0,0,51.34,7.51c30,.47,51.3-7.4,51.51-7.47a1.64,1.64,0,0,1,1.6.23,1.68,1.68,0,0,1,.65,1.49,192.07,192.07,0,0,1-7.43,34.72c-7.8,24.46-19,39.95-33.25,46C123.11,270.44,117.56,270.93,112,270.93Z"/><path class="cls-6" d="M62.52,190.85c1.95,12.07,11.74,63.89,37.66,75.57,3.27,1.48,19.81,1.73,23.92,0h0c28.27-12,36.72-63.27,38.35-75.43a163,163,0,0,1-50.18,6.82A214.58,214.58,0,0,1,62.52,190.85Z"/><path class="cls-9" d="M64.2,192.61c1.88,11.52,11.34,61,36.39,72.13,3.17,1.41,19.15,1.65,23.12,0h0c27.32-11.5,35.49-60.38,37.06-72a159.23,159.23,0,0,1-48.49,6.51A209.78,209.78,0,0,1,64.2,192.61Z"/><path class="cls-6" d="M69.15,195.94c1.69,10.47,10.18,55.42,32.66,65.54,2.84,1.28,17.18,1.5,20.74,0h0c24.52-10.44,31.85-54.86,33.26-65.41A141.34,141.34,0,0,1,112.3,202,186.08,186.08,0,0,1,69.15,195.94Z"/><path d="M71,197.37c1.62,10,9.74,53,31.26,62.73,2.72,1.23,16.45,1.43,19.85,0h0c23.47-10,30.49-52.51,31.83-62.6a135.57,135.57,0,0,1-41.64,5.66A178.37,178.37,0,0,1,71,197.37Z"/><path class="cls-10" d="M75.47,202.13c1.45,8.73,8.7,46.21,27.9,54.65,2.42,1.07,14.67,1.25,17.72,0h0c20.94-8.71,27.2-45.75,28.4-54.54a123.39,123.39,0,0,1-37.16,4.93A163.06,163.06,0,0,1,75.47,202.13Z"/><path class="cls-11" d="M112.32,299.38c-5.85,0-10.87-3.23-12.93-7.8a42.56,42.56,0,0,0,25.85,0C123.19,296.15,118.17,299.38,112.32,299.38Z"/><path class="cls-12" d="M82.16,207.36c1.18,7.12,7.12,37.7,22.85,44.58,2,.88,12,1,14.52,0h0c17.16-7.1,22.29-37.32,23.27-44.49a101.88,101.88,0,0,1-30.45,4A133.53,133.53,0,0,1,82.16,207.36Z"/><path class="cls-13" d="M109.73,222.11s-4.76-6.66-7.14-7.14,5.24,15.23,5.24,15.23,10,15.7,10.94,15.7-2.85-12.37-2.85-12.37,10.94,10,12.37,8.56S113.06,225.92,109.73,222.11Z"/><path class="cls-13" d="M108.3,242.57l-9-18.08s-3.8-3.33-.47,4.76A38.52,38.52,0,0,0,108.3,242.57Z"/><path class="cls-13" d="M117.82,218.3s5.71,10.95,8.09,10.95S119.25,217.35,117.82,218.3Z"/><ellipse class="cls-2" cx="112.59" cy="332.97" rx="18.56" ry="5.71"/><ellipse class="cls-14" cx="112.15" cy="332.97" rx="14.35" ry="4.06"/><path d="M124.93,152.15v-13a12.85,12.85,0,0,0-25.7,0v13.2c-4.51,2-6.66,4.91-6.66,7.74,0,5.2,6.78,10.46,19.75,10.46s19.74-5.26,19.74-10.46C132.06,157.16,129.77,154.1,124.93,152.15Z"/><path class="cls-7" d="M112.43,141.14a32.62,32.62,0,0,0,9.17-1.32V146c-3.17,1-11,2.9-19-1v-5.55A29.43,29.43,0,0,0,112.43,141.14Z"/><path class="cls-7" d="M113.05,150.75a30.62,30.62,0,0,0,8.55-1.23v6.16c-1.91,1.29-8.47,4.7-19-.21v-6.78A27.18,27.18,0,0,0,113.05,150.75Z"/><path class="cls-7" d="M112.08,129.63a9.54,9.54,0,0,1,9.12,6.82,28.39,28.39,0,0,1-18.13-.34A9.53,9.53,0,0,1,112.08,129.63Z"/><path class="cls-6" d="M112.32,167.22c-11.2,0-16.42-4.26-16.42-7.13,0-1.27,1.08-2.78,3.33-4v.23c0,1.52.8,3.63,4.59,5a24.87,24.87,0,0,0,8.26,1.26c5.93,0,12.85-1.65,12.85-6.28v-.48c2.58,1.3,3.8,2.93,3.8,4.29C128.73,163,123.52,167.22,112.32,167.22Z"/><path class="cls-15" d="M112.1,131.06a6.19,6.19,0,0,1,5.93,4.43,18.5,18.5,0,0,1-11.79-.22A6.2,6.2,0,0,1,112.1,131.06Z"/><path class="cls-15" d="M112.34,142.8a39,39,0,0,0,7-.63v3a30.54,30.54,0,0,1-14.54-.48V142A34.45,34.45,0,0,0,112.34,142.8Z"/><path class="cls-15" d="M112.43,153a22.33,22.33,0,0,0,6.92-1.27v3a17.79,17.79,0,0,1-14.54-.48v-2.67A32.23,32.23,0,0,0,112.43,153Z"/><path d="M112.32,155.93c-14.82,0-28.66-2.09-39-5.89-12.13-4.46-18.54-11-18.54-18.91,0-16,6.5-37.6,16.58-55,11.9-20.53,26.44-31.84,40.93-31.84s29,11.31,40.93,31.84c10.07,17.37,16.58,39,16.58,55,0,7.91-6.41,14.45-18.54,18.91C141,153.84,127.14,155.93,112.32,155.93Z"/><path class="cls-16" d="M112.32,47.65c-17.88,0-31.52,18.91-38,30.18-9.8,16.9-16.13,37.82-16.13,53.3,0,14.09,27.25,21.47,54.18,21.47s54.18-7.38,54.18-21.47c0-15.48-6.33-36.4-16.13-53.3C143.83,66.56,130.2,47.65,112.32,47.65Z"/><path d="M112.43,144.51c-14,0-27-2.09-36.76-5.89-11.44-4.46-17.49-11-17.49-18.91,0-16,6.14-37.6,15.64-55C85.05,44.21,98.76,32.9,112.43,32.9S139.8,44.21,151,64.74c9.5,17.37,15.64,39,15.64,55,0,7.91-6,14.45-17.49,18.91C139.46,142.42,126.4,144.51,112.43,144.51Z"/><path class="cls-17" d="M112.43,140.62c-13.25,0-25.61-2-34.82-5.58C66.77,130.81,61,124.62,61,117.13,61,102,66.85,81.51,75.85,65.05,86.49,45.6,99.48,34.89,112.43,34.89S138.36,45.6,149,65.05c9,16.46,14.81,36.9,14.81,52.08,0,7.49-5.73,13.68-16.57,17.91C138,138.64,125.67,140.62,112.43,140.62Z"/><path class="cls-7" d="M162.86,134.26a103.72,103.72,0,0,1-18.08,8.57c-11.9,4.28-41.15,8.7-68.52-1-6.37-2.25-13.32-7.61-15.22-7.61,0,0,1.35,4.38,12.37,9.52,14.27,6.66,55.67,9.51,74.7.95C154.8,141.72,163.81,135.69,162.86,134.26Z"/><path d="M112.32,143.79c-14.82,0-28.66-2.09-39-5.89-12.13-4.46-18.54-11-18.54-18.91,0-16,6.5-37.6,16.58-55,11.9-20.53,26.44-31.84,40.93-31.84s29,11.31,40.93,31.84c10.07,17.37,16.58,39,16.58,55,0,7.91-6.41,14.45-18.54,18.91C141,141.7,127.14,143.79,112.32,143.79Z"/><path class="cls-7" d="M112.32,35.51c-17.88,0-31.52,18.91-38,30.18-9.8,16.9-16.13,37.82-16.13,53.3,0,14.09,27.25,21.47,54.18,21.47S166.5,133.08,166.5,119c0-15.48-6.33-36.4-16.13-53.3C143.83,54.42,130.2,35.51,112.32,35.51Z"/><path class="cls-8" d="M112,73.75s11.26-15,27.93-13.42c-6.44-8.7-16-17.86-27.56-17.86-12,0-21.83,9.86-28.28,18.84C90.77,60.21,102.1,60.72,112,73.75Z"/><path class="cls-8" d="M137.64,121.8c-10.47-.47-20.46-4.76-24.74-14.75,0,0-9.52,15.7-29,15.7,0,0-11.66-1.19-18.55-8.31,0,.15,0,.29,0,.44,0,12.22,23.64,18.62,47,18.62s47-6.4,47-18.62c0-.32,0-.65,0-1C155.5,116.42,145.84,122.17,137.64,121.8Z"/><path d="M118,30.4v-5a13.32,13.32,0,1,0-11.42,0v5c-4.13,1.4-6.9,4.27-6.9,7.66,0,4.81,5.54,8.57,12.61,8.57s12.61-3.76,12.61-8.57C124.93,34.67,122.15,31.8,118,30.4Z"/><circle class="cls-5" cx="112.32" cy="13.32" r="9.99"/><path class="cls-7" d="M112.22,26.65a13.34,13.34,0,0,0,2.38-.27l.15,7.83a2.38,2.38,0,1,1-4.76.09l-.15-7.82A14.34,14.34,0,0,0,112.22,26.65Z"/><path class="cls-6" d="M112.32,43.3c-5,0-9.28-2.4-9.28-5.24,0-1.63,1.41-3.11,3.57-4.08v.28a5.71,5.71,0,0,0,11.42,0V34c2.15,1,3.57,2.45,3.57,4.08C121.6,40.9,117.35,43.3,112.32,43.3Z"/><circle class="cls-11" cx="112.32" cy="13.32" r="8.46"/><ellipse class="cls-18" cx="112.32" cy="10.04" rx="5.13" ry="3.28"/><path class="cls-15" d="M112.25,28a9.4,9.4,0,0,0,1.69-.19l.12,5.59a1.7,1.7,0,1,1-3.4.07l-.11-5.59A9.52,9.52,0,0,0,112.25,28Z"/><path class="cls-9" d="M112.43,42.34c-5.71,0-8.1-2.54-8.09-4.28s1.9-2.38,1.9-2.38c0,3.33,3.87,5.24,6.19,5.24a5.75,5.75,0,0,0,6.18-5.71c.74.33,2.49,1.85,1.9,3.33C119.56,40.92,116.71,42.34,112.43,42.34Z"/><circle cx="86.15" cy="89.45" r="26.64"/><circle class="cls-6" cx="86.15" cy="89.45" r="23.31"/><circle class="cls-9" cx="86.15" cy="89.45" r="22.36"/><circle class="cls-6" cx="86.15" cy="89.45" r="20.46"/><circle cx="86.15" cy="89.45" r="19.03"/><circle class="cls-19" cx="86.15" cy="89.45" r="15.7"/><circle class="cls-20" cx="86.15" cy="89.45" r="12.74"/><circle class="cls-10" cx="85.32" cy="89.57" r="7.26"/><circle class="cls-20" cx="85.32" cy="89.57" r="1.55"/><circle cx="138.49" cy="89.45" r="26.64"/><circle class="cls-6" cx="138.49" cy="89.45" r="23.31"/><circle class="cls-9" cx="138.49" cy="89.45" r="22.36"/><circle class="cls-6" cx="138.49" cy="89.45" r="20.46"/><circle cx="138.49" cy="89.45" r="19.03"/><circle class="cls-19" cx="138.49" cy="89.45" r="15.7"/><circle class="cls-20" cx="138.49" cy="89.45" r="12.74"/><circle class="cls-10" cx="137.65" cy="89.57" r="7.26"/><circle class="cls-20" cx="137.65" cy="89.57" r="1.55"/><path d="M69.24,256.49a6.43,6.43,0,0,0-1.9-8.88l-14-9.06a6.43,6.43,0,0,0-7,10.79l14,9A6.44,6.44,0,0,0,69.24,256.49Z"/><path class="cls-6" d="M47.28,242.26a3.1,3.1,0,0,1,4.28-.92l14,9.07a3.09,3.09,0,1,1-3.37,5.19l-14-9.07A3.09,3.09,0,0,1,47.28,242.26Z"/><path d="M78.53,248.88a7.06,7.06,0,0,0,.52-1,6.43,6.43,0,0,0-3.39-8.43h0l-15.32-6.53a6.42,6.42,0,0,0-5,11.82l15.32,6.53a6.46,6.46,0,0,0,7.91-2.41Z"/><path class="cls-6" d="M74.36,242.54a3.09,3.09,0,0,1-2.43,5.69l-15.32-6.54A3.1,3.1,0,0,1,55,237.64,3,3,0,0,1,56.67,236,3.09,3.09,0,0,1,59,236Z"/><path d="M80.32,236.24a6.48,6.48,0,0,0,1-2.51,6.44,6.44,0,0,0-5.38-7.32h0l-16.46-2.52a6.42,6.42,0,0,0-1.94,12.7L74,239.1a6.36,6.36,0,0,0,4.77-1.17A6.58,6.58,0,0,0,80.32,236.24Z"/><path class="cls-6" d="M75.39,229.7a3.08,3.08,0,0,1,1.36,5.54,3.06,3.06,0,0,1-2.3.57L58,233.29a3.09,3.09,0,0,1,.94-6.11Z"/><path d="M64.38,211.94a6.42,6.42,0,0,0-8.06-.34,6.42,6.42,0,0,0-2.54,4.21h0l-2.47,16.47A6.43,6.43,0,0,0,64,234.18l2.47-16.47A6.38,6.38,0,0,0,65.3,213,6.87,6.87,0,0,0,64.38,211.94Z"/><path class="cls-6" d="M57.08,216.3a3.09,3.09,0,0,1,6.11.92l-2.46,16.47a3.09,3.09,0,0,1-6.12-.92Z"/><ellipse cx="50.2" cy="188" rx="9.99" ry="15.94"/><ellipse class="cls-6" cx="50.2" cy="188" rx="6.66" ry="12.61"/><path d="M25,216.7l25.39-20.24A9.28,9.28,0,1,0,38.85,182L13.46,202.2A9.28,9.28,0,1,0,25,216.7Z"/><path class="cls-7" d="M40.93,184.56a5.95,5.95,0,0,1,7.41,9.3L23,214.1a5.95,5.95,0,0,1-7.42-9.3Z"/><path class="cls-15" d="M31.92,193.56l2.66-2.12c.36,2.95,3.87,6,5.05,6.93l-2.86,2.27C33,198.13,32.09,195.18,31.92,193.56Z"/><path class="cls-15" d="M44.3,194.64l-2.82,2.25a14.57,14.57,0,0,1-5.35-6.68l2.8-2.24C40.11,191.38,43.19,193.84,44.3,194.64Z"/><path class="cls-15" d="M27.27,197.27l3.13-2.5a10.23,10.23,0,0,0,4.93,7l-2.48,2C30.78,202.8,28.09,198.6,27.27,197.27Z"/><path class="cls-15" d="M18.91,203.93l2.48-2c.45,2.89,3.91,6,5.07,6.92L23.8,211C20.07,208.41,19.13,205.51,18.91,203.93Z"/><path class="cls-15" d="M17.51,205.07a10.91,10.91,0,0,0,4.89,7c-2.18,1.29-4.78,1.12-6.1-.53S15.46,206.93,17.51,205.07Z"/><path class="cls-15" d="M22.83,200.81l2.62-2.09a16.21,16.21,0,0,0,5.36,6.68l-2.63,2.09A15.72,15.72,0,0,1,22.83,200.81Z"/><path class="cls-15" d="M40.91,186.41c2.28-1.68,5.22-1.63,6.64.16s.87,4.45-1.07,6.3C44.35,191.93,41.72,187.76,40.91,186.41Z"/><path d="M70.36,247.18c3.49-5.38,5.55-12.14,5-17.83-.47-5.21-3-9.15-7.22-11.09-13.26-6.16-39.26-11.95-49.84-7A9.88,9.88,0,0,0,14,215.92a9.56,9.56,0,0,0-.82,6.52c3.22,11.21,24.42,27.25,37.6,33.36,4.18,1.95,8.85,1.36,13.13-1.65A25.27,25.27,0,0,0,70.36,247.18Z"/><path class="cls-7" d="M17.55,216.33a5.58,5.58,0,0,1,2.2-2.07c8.82-4.11,32.94.48,47,7,3.92,1.82,5,5.55,5.3,8.36.67,7.49-4,17.47-10.11,21.79-2.31,1.62-5.89,3.17-9.81,1.35h0c-14-6.5-33.11-21.89-35.8-31.26a6.57,6.57,0,0,1,.64-4.19A8.62,8.62,0,0,1,17.55,216.33Z"/><path class="cls-8" d="M24,219.06a4.22,4.22,0,0,1,1.67-1.58c6.71-3.13,25.08.37,35.81,5.35a7.31,7.31,0,0,1,4,6.37c.51,5.7-3,13.29-7.69,16.58a7.33,7.33,0,0,1-7.48,1h0c-10.66-4.95-25.2-16.67-27.25-23.8a4.92,4.92,0,0,1,.49-3.19A4.63,4.63,0,0,1,24,219.06Z"/><circle cx="12.25" cy="216.07" r="12.25"/><circle class="cls-6" cx="12.25" cy="216.07" r="8.92"/><path d="M156,256.49a6.42,6.42,0,0,1,1.9-8.88l14-9.06a6.43,6.43,0,0,1,7,10.79l-14,9A6.42,6.42,0,0,1,156,256.49Z"/><path class="cls-6" d="M178,242.26a3.09,3.09,0,0,0-4.27-.92l-14,9.07a3.09,3.09,0,0,0,3.37,5.19l14-9.07A3.09,3.09,0,0,0,178,242.26Z"/><path d="M146.72,248.88a7.06,7.06,0,0,1-.52-1,6.46,6.46,0,0,1,3.39-8.43h0l15.32-6.53a6.42,6.42,0,0,1,5,11.82l-15.32,6.53a6.34,6.34,0,0,1-4.91,0A6.4,6.4,0,0,1,146.72,248.88Z"/><path class="cls-6" d="M150.9,242.54a3.09,3.09,0,0,0,2.42,5.69l15.32-6.54a3.11,3.11,0,0,0,1.64-4.05,3.13,3.13,0,0,0-4.06-1.64Z"/><path d="M144.94,236.24a6.43,6.43,0,0,1,4.42-9.83h0l16.46-2.52a6.42,6.42,0,0,1,2,12.7l-16.46,2.51a6.41,6.41,0,0,1-6.37-2.86Z"/><path class="cls-6" d="M149.87,229.7a3.09,3.09,0,0,0-2.59,3.52,3.11,3.11,0,0,0,3.52,2.59l16.46-2.52a3.08,3.08,0,0,0,2.59-3.52,3,3,0,0,0-1.23-2,3.08,3.08,0,0,0-2.29-.57Z"/><path d="M160.88,211.94a6.43,6.43,0,0,1,10.59,3.87h0l2.47,16.47a6.43,6.43,0,0,1-12.71,1.9l-2.47-16.47A6.35,6.35,0,0,1,160,213,5.91,5.91,0,0,1,160.88,211.94Z"/><path class="cls-6" d="M168.18,216.3a3.09,3.09,0,0,0-1.23-2,3.09,3.09,0,0,0-4.89,2.94l2.47,16.47a3,3,0,0,0,1.22,2,3.1,3.1,0,0,0,2.3.58,3.12,3.12,0,0,0,2.6-3.52Z"/><ellipse cx="175.06" cy="188" rx="9.99" ry="15.94"/><ellipse class="cls-6" cx="175.06" cy="188" rx="6.66" ry="12.61"/><path d="M200.23,216.7l-25.39-20.24A9.28,9.28,0,0,1,186.4,182l25.4,20.25a9.28,9.28,0,1,1-11.57,14.5Z"/><path class="cls-7" d="M184.33,184.56a5.95,5.95,0,0,0-7.42,9.3L202.3,214.1a5.95,5.95,0,1,0,7.42-9.3Z"/><path class="cls-15" d="M193.34,193.56l-2.67-2.12c-.36,2.95-3.86,6-5,6.93l2.85,2.27C192.29,198.13,193.17,195.18,193.34,193.56Z"/><path class="cls-15" d="M181,194.64l2.82,2.25a14.69,14.69,0,0,0,5.36-6.68L186.32,188C185.15,191.38,182.07,193.84,181,194.64Z"/><path class="cls-15" d="M198,197.27l-3.13-2.5a10.23,10.23,0,0,1-4.93,7l2.48,2C194.48,202.8,197.17,198.6,198,197.27Z"/><path class="cls-15" d="M206.34,203.93l-2.48-2c-.45,2.89-3.9,6-5.07,6.92l2.66,2.12C205.18,208.41,206.12,205.51,206.34,203.93Z"/><path class="cls-15" d="M207.75,205.07a10.92,10.92,0,0,1-4.9,7c2.19,1.29,4.78,1.12,6.1-.53S209.8,206.93,207.75,205.07Z"/><path class="cls-15" d="M202.43,200.81l-2.62-2.09a16.21,16.21,0,0,1-5.36,6.68l2.62,2.09A15.77,15.77,0,0,0,202.43,200.81Z"/><path class="cls-15" d="M184.35,186.41c-2.29-1.68-5.22-1.63-6.65.16s-.87,4.45,1.08,6.3C180.9,191.93,183.54,187.76,184.35,186.41Z"/><path d="M154.89,247.18c-3.49-5.38-5.54-12.14-5-17.83.46-5.21,3-9.15,7.21-11.09,13.26-6.16,39.27-11.95,49.84-7a9.77,9.77,0,0,1,4.36,4.68,9.56,9.56,0,0,1,.82,6.52c-3.22,11.21-24.42,27.25-37.59,33.36-4.19,1.95-8.85,1.36-13.13-1.65A25.15,25.15,0,0,1,154.89,247.18Z"/><path class="cls-7" d="M207.7,216.33a5.62,5.62,0,0,0-2.19-2.07c-8.82-4.11-32.94.48-47,7-3.93,1.82-5,5.55-5.3,8.36-.67,7.49,4,17.47,10.1,21.79,2.31,1.62,5.89,3.17,9.82,1.35h0c14-6.5,33.1-21.89,35.79-31.26a6.44,6.44,0,0,0-.64-4.19A7.35,7.35,0,0,0,207.7,216.33Z"/><path class="cls-8" d="M201.26,219.06a4.36,4.36,0,0,0-1.67-1.58c-6.72-3.13-25.08.37-35.81,5.35a7.32,7.32,0,0,0-4,6.37c-.51,5.7,3,13.29,7.7,16.58a7.31,7.31,0,0,0,7.47,1h0c10.67-4.95,25.2-16.67,27.26-23.8a4.92,4.92,0,0,0-.5-3.19A5.48,5.48,0,0,0,201.26,219.06Z"/><circle cx="213" cy="216.07" r="12.25"/><circle class="cls-6" cx="213" cy="216.07" r="8.92"/></g></g></svg>