<svg xmlns="http://www.w3.org/2000/svg" viewBox="0 0 136.38 338.68"><defs><style>.cls-1{fill:#a1e5df;}.cls-1,.cls-10,.cls-2,.cls-3{opacity:0.63;}.cls-2{fill:#bfefe9;}.cls-3{fill:#7fdbd4;}.cls-4{fill:#748c8c;}.cls-5{fill:#1f9390;}.cls-6{fill:#7b84af;}.cls-7{fill:#a5c4c6;}.cls-8{fill:#b8d0d1;}.cls-9{fill:#51bcb7;}.cls-10{fill:#dcf7f3;}.cls-11{fill:#0f4a86;}.cls-12{fill:#1f5b8c;}.cls-13{fill:#8e9abc;}.cls-14{fill:#3374a0;}.cls-15{fill:#bdd1d1;}.cls-16{fill:#87ddd4;}.cls-17{fill:#dfedf7;}.cls-18{fill:#fff;}</style></defs><g id="Layer_2" data-name="Layer 2"><g id="Layer_357" data-name="Layer 357"><ellipse class="cls-1" cx="70.04" cy="316.32" rx="30.45" ry="9.37"/><ellipse class="cls-2" cx="69.32" cy="316.32" rx="23.55" ry="6.66"/><ellipse class="cls-3" cx="70.04" cy="298.71" rx="41.75" ry="12.85"/><ellipse class="cls-1" cx="70.04" cy="297.52" rx="35.57" ry="9.75"/><path d="M132.55,162.65a11.61,11.61,0,0,0-2.41-3.46c-.41-.48-.83-.94-1.27-1.37a25.42,25.42,0,0,0-12.14-6.15c-.89-.32-1.8-.62-2.76-.92C102.13,147.06,86.42,145,69.74,145s-32.4,2-44.23,5.72c-1,.31-2,.63-2.89,1a25.29,25.29,0,0,0-12,6.11c-.33.32-.65.65-.95,1A11.68,11.68,0,0,0,6.78,163c-2.43,4.53-3.62,10.38-3.62,17.71,0,27.32,15.37,74,40.08,94.26a8.31,8.31,0,0,0-.59,3c0,3.6,2.41,6.84,6.45,9.33a21.16,21.16,0,0,0,41.33,0c4-2.48,6.46-5.73,6.46-9.33a8.14,8.14,0,0,0-.7-3.29c10-8.24,19.32-21.46,26.8-38.27,8.26-18.57,13.39-39.93,13.39-55.74C136.38,173.2,135.12,167.23,132.55,162.65Z"/><path class="cls-4" d="M113,153.93c7.26,2.26,12.51,5.08,15.11,8a18.27,18.27,0,0,1,1.34,2,4.89,4.89,0,0,1,.5,2.09c0,4.23-6.34,8.73-17,12-11.53,3.59-26.88,5.57-43.24,5.57S38,181.59,26.5,178c-10.62-3.3-16.95-7.8-16.95-12a4.64,4.64,0,0,1,.3-1.62,18.46,18.46,0,0,1,2-3c2.74-2.72,7.79-5.34,14.61-7.46,11.52-3.59,26.88-5.57,43.24-5.57S101.45,150.34,113,153.93Z"/><path class="cls-5" d="M69.77,300.62A17.89,17.89,0,0,1,53.2,289.39a45.12,45.12,0,0,0,16.57,2.9,45,45,0,0,0,16.56-2.9A17.86,17.86,0,0,1,69.77,300.62Z"/><path class="cls-6" d="M69.77,289C56.87,289,46,284,46,278a4.31,4.31,0,0,1,.09-.88,47.67,47.67,0,0,0,5.28,3.3c5.47,2.91,13,3.52,18.42,3.52,3.33,0,11.73-.34,17.86-3.51a45.35,45.35,0,0,0,5.78-3.59,4.56,4.56,0,0,1,.15,1.16C93.56,284,82.66,289,69.77,289Z"/><path class="cls-7" d="M120,235.11C110.68,255.94,98.67,271,86.1,277.49c-5.48,2.84-13.25,3.14-16.33,3.14-5,0-12-.54-16.85-3.13-12.47-6.64-24.37-21.75-33.51-42.56C11.44,216.8,6.49,196,6.49,180.72a44.09,44.09,0,0,1,1.06-10.24c2.52,4.14,8.6,7.79,18,10.7,11.83,3.69,27.54,5.72,44.23,5.72s32.39-2,44.23-5.72c9.41-2.93,15.51-6.6,18-10.77a44,44,0,0,1,1.08,10.31C133.05,196.09,128,216.93,120,235.11Z"/><path class="cls-8" d="M116.62,234.48C108,253.92,96.75,268,85,274.05,79.9,276.7,72.65,277,69.77,277c-4.67,0-11.2-.51-15.74-2.93-11.64-6.2-22.75-20.31-31.29-39.74C15.3,217.38,10.68,198,10.68,183.68c0-3.62.66-3.78,9.4-1.06,11.05,3.44,34.08,6.84,49.66,6.84s39.2-3.4,50.26-6.84c8.78-2.74,8.86-2.59,8.86,1.06C128.86,198,124.17,217.5,116.62,234.48Z"/><path class="cls-9" d="M69.77,299.38c-5.85,0-10.87-3.23-12.93-7.8a39.14,39.14,0,0,0,12.93,2,39,39,0,0,0,12.92-2C80.64,296.15,75.62,299.38,69.77,299.38Z"/><ellipse class="cls-2" cx="70.04" cy="332.97" rx="18.56" ry="5.71"/><ellipse class="cls-10" cx="69.6" cy="332.97" rx="14.35" ry="4.06"/><path d="M38.8,268.34a.41.41,0,0,1-.07.11l-1.81,2.62a1.49,1.49,0,0,1-1.15.64h-.09a1.49,1.49,0,0,1-1.12-.51l-7.4-8.41A1.51,1.51,0,0,1,27,261s.12-.19.28-.47C.43,236.35,2.83,201.09,3.5,194.82c-.93-.45-1.84-.92-2.72-1.4A1.5,1.5,0,0,1,0,192.11V180a1.5,1.5,0,0,1,2.21-1.32c7.08,3.83,23.64,12.79,52.09,15a1.51,1.51,0,0,1,1.38,1.4C55.7,195.53,58,234.82,38.8,268.34Z"/><path class="cls-11" d="M29.25,256.9a138,138,0,0,0,14.26-50.76c-5-.73-21.94-3.54-36.15-9.57C6.69,204.78,6,235.3,29.25,256.9Z"/><path class="cls-6" d="M52.73,196.61C27.07,194.37,11.07,186.79,3,182.53v8.68c16.59,8.75,42,12.12,42.29,12.15a1.5,1.5,0,0,1,1.3,1.58,139.92,139.92,0,0,1-16.47,56.69l5.42,6.16.69-1C53,237.47,52.94,203.58,52.73,196.61Z"/><path class="cls-12" d="M28.29,248.53a104.24,104.24,0,0,0,10.77-38.36c-3.75-.55-16.58-2.68-27.32-7.23C11.24,209.15,10.72,232.2,28.29,248.53Z"/><path class="cls-13" d="M50.66,198.24C25,196,13.37,190.43,5.3,186.16v3.69C21.89,198.6,45.5,201.92,45.76,202c.78.1,2.6,1.36,2.56,2.14-1.76,29.07-13.28,52.27-16,57.14l3.3,3.93S52.16,232.49,50.66,198.24Z"/><path class="cls-14" d="M27.37,232.42l-9-18.09s-3.8-3.33-.47,4.76A38.62,38.62,0,0,0,27.37,232.42Z"/><path class="cls-14" d="M23.64,214.15s5.71,10.94,8.09,10.94S25.07,213.2,23.64,214.15Z"/><path d="M55.58,152V139a12.85,12.85,0,1,1,25.69,0v13.2c4.52,1.95,6.67,4.9,6.67,7.73,0,5.2-6.79,10.47-19.75,10.47S48.44,165.15,48.44,160C48.44,157,50.74,154,55.58,152Z"/><path class="cls-7" d="M68.08,141a33,33,0,0,1-9.17-1.32v6.21c3.16,1,11,2.9,19-1v-5.55A29.59,29.59,0,0,1,68.08,141Z"/><path class="cls-7" d="M67.46,150.62a31,31,0,0,1-8.55-1.23v6.16c1.9,1.28,8.47,4.69,19-.22v-6.78A26.94,26.94,0,0,1,67.46,150.62Z"/><path class="cls-7" d="M68.43,129.5a9.52,9.52,0,0,0-9.12,6.82A28.46,28.46,0,0,0,77.44,136,9.54,9.54,0,0,0,68.43,129.5Z"/><path class="cls-6" d="M68.19,167.09c11.2,0,16.42-4.26,16.42-7.14,0-1.27-1.08-2.77-3.34-4v.23c0,1.52-.79,3.63-4.58,5a24.88,24.88,0,0,1-8.26,1.25c-5.93,0-12.85-1.64-12.85-6.27v-.49C53,157,51.78,158.6,51.78,160,51.78,162.83,57,167.09,68.19,167.09Z"/><path class="cls-15" d="M68.41,130.93a6.19,6.19,0,0,0-5.93,4.43,18.5,18.5,0,0,0,11.79-.22A6.19,6.19,0,0,0,68.41,130.93Z"/><path class="cls-15" d="M68.16,142.67a37.9,37.9,0,0,1-7-.64v3a30.67,30.67,0,0,0,14.54-.48v-2.67A35.1,35.1,0,0,1,68.16,142.67Z"/><path class="cls-15" d="M68.08,152.81a22.41,22.41,0,0,1-6.92-1.26v3a17.75,17.75,0,0,0,14.54-.48v-2.66A32.27,32.27,0,0,1,68.08,152.81Z"/><path d="M46.88,271.49a6.43,6.43,0,0,1,1.9-8.88l14-9.05a6.42,6.42,0,1,1,7,10.78l-14,9.05A6.43,6.43,0,0,1,46.88,271.49Z"/><path class="cls-6" d="M68.84,257.26a3.1,3.1,0,0,0-4.28-.91l-14,9.06A3.09,3.09,0,1,0,54,270.6l14-9.07A3.08,3.08,0,0,0,68.84,257.26Z"/><path d="M37.59,263.88a6.53,6.53,0,0,1-.52-1,6.43,6.43,0,0,1,3.39-8.43h0l15.32-6.53a6.42,6.42,0,0,1,5,11.82L45.5,266.29a6.43,6.43,0,0,1-7.91-2.41Z"/><path class="cls-6" d="M41.77,257.54a3.06,3.06,0,0,0-1.66,1.69,3.08,3.08,0,0,0,1.72,4,3.06,3.06,0,0,0,2.36,0l15.32-6.53a3.11,3.11,0,0,0,1.63-4.06,3.1,3.1,0,0,0-4-1.63Z"/><path d="M35.8,251.24a6.48,6.48,0,0,1-.95-2.51,6.44,6.44,0,0,1,5.38-7.32h0l16.46-2.52a6.42,6.42,0,0,1,1.94,12.7l-16.46,2.52a6.47,6.47,0,0,1-6.37-2.87Z"/><path class="cls-6" d="M40.73,244.7a3.11,3.11,0,0,0-2.59,3.52,3.06,3.06,0,0,0,1.23,2,3,3,0,0,0,2.3.57l16.46-2.51a3.1,3.1,0,0,0,2.59-3.53,3,3,0,0,0-1.23-2,3.08,3.08,0,0,0-2.29-.57Z"/><path d="M51.74,226.94a6.42,6.42,0,0,1,8.06-.34,6.42,6.42,0,0,1,2.54,4.21h0l2.47,16.47a6.43,6.43,0,0,1-12.71,1.9l-2.47-16.47A6.38,6.38,0,0,1,50.82,228,7.41,7.41,0,0,1,51.74,226.94Z"/><path class="cls-6" d="M59,231.3a3,3,0,0,0-1.22-2,3.07,3.07,0,0,0-4.32.65,3,3,0,0,0-.57,2.29l2.47,16.47a3.11,3.11,0,0,0,3.51,2.6,3.09,3.09,0,0,0,2.6-3.52Z"/><ellipse cx="65.92" cy="203" rx="9.99" ry="15.94"/><ellipse class="cls-6" cx="65.92" cy="203" rx="6.66" ry="12.61"/><path d="M91.09,231.71,65.7,211.46A9.28,9.28,0,0,1,77.27,197l25.39,20.25a9.28,9.28,0,1,1-11.57,14.51Z"/><path class="cls-7" d="M75.2,199.56a5.95,5.95,0,0,0-7.42,9.3L93.17,229.1a5.95,5.95,0,1,0,7.42-9.3Z"/><path class="cls-15" d="M84.21,208.57l-2.67-2.13c-.36,3-3.87,6-5.05,6.93l2.86,2.28C83.16,213.14,84,210.18,84.21,208.57Z"/><path class="cls-15" d="M71.82,209.64l2.82,2.25A14.69,14.69,0,0,0,80,205.21L77.19,203C76,206.39,72.93,208.84,71.82,209.64Z"/><path class="cls-15" d="M88.85,212.27l-3.13-2.5a10.23,10.23,0,0,1-4.93,7l2.48,2C85.34,217.8,88,213.61,88.85,212.27Z"/><path class="cls-15" d="M97.21,218.93l-2.48-2c-.45,2.89-3.91,6-5.07,6.92L92.32,226C96.05,223.41,97,220.51,97.21,218.93Z"/><path class="cls-15" d="M98.61,220.08A10.88,10.88,0,0,1,93.72,227c2.18,1.29,4.78,1.12,6.1-.53S100.66,221.93,98.61,220.08Z"/><path class="cls-15" d="M93.29,215.81l-2.61-2.08a16.31,16.31,0,0,1-5.36,6.67l2.62,2.09A15.72,15.72,0,0,0,93.29,215.81Z"/><path class="cls-15" d="M75.22,201.41c-2.29-1.68-5.22-1.63-6.65.16s-.87,4.45,1.08,6.31C71.77,206.93,74.41,202.76,75.22,201.41Z"/><path d="M45.76,262.19c-3.49-5.39-5.54-12.14-5-17.84.46-5.21,3-9.15,7.21-11.09,13.26-6.16,39.26-11.95,49.84-7a9.77,9.77,0,0,1,4.36,4.68,9.56,9.56,0,0,1,.82,6.52c-3.22,11.22-24.42,27.25-37.59,33.37-4.19,1.94-8.86,1.35-13.13-1.66A25.1,25.1,0,0,1,45.76,262.19Z"/><path class="cls-7" d="M98.57,231.33a5.58,5.58,0,0,0-2.2-2.07c-8.82-4.11-32.94.48-47,7-3.92,1.82-5.05,5.55-5.3,8.37-.67,7.48,4,17.46,10.11,21.78,2.31,1.62,5.89,3.18,9.81,1.35h0c14-6.5,33.11-21.89,35.8-31.26a6.58,6.58,0,0,0-.64-4.19A9.54,9.54,0,0,0,98.57,231.33Z"/><path class="cls-8" d="M92.12,234.06a4.22,4.22,0,0,0-1.67-1.58c-6.71-3.13-25.08.37-35.8,5.35a7.32,7.32,0,0,0-4,6.37c-.51,5.7,3,13.29,7.69,16.58a7.35,7.35,0,0,0,7.48,1h0C76.45,256.87,91,245.14,93,238a4.92,4.92,0,0,0-.49-3.19A5.08,5.08,0,0,0,92.12,234.06Z"/><circle cx="103.87" cy="231.07" r="12.25"/><circle class="cls-6" cx="103.87" cy="231.07" r="8.92"/><circle cx="37.57" cy="88.71" r="26.64"/><circle class="cls-6" cx="37.57" cy="88.71" r="23.31"/><path d="M125.94,119c0-16-6.51-37.6-16.58-55C97.45,43.49,82.92,32.18,68.43,32.18S39.4,43.49,27.5,64c-10.08,17.37-16.58,39-16.58,55a14,14,0,0,0,.53,3.78,72.6,72.6,0,0,0-.53,8.36c0,7.91,6.41,14.45,18.54,18.91,10.31,3.8,24.15,5.89,39,5.89s28.66-2.09,39-5.89c12.13-4.46,18.54-11,18.54-18.91Z"/><path d="M68.54,144.51c-14,0-27-2.09-36.76-5.89-11.44-4.46-17.49-11-17.49-18.91,0-16,6.14-37.6,15.64-55C41.16,44.21,54.87,32.9,68.54,32.9s27.37,11.31,38.6,31.84c9.5,17.37,15.64,39,15.64,55,0,7.91-6,14.45-17.49,18.91C95.57,142.42,82.51,144.51,68.54,144.51Z"/><path class="cls-7" d="M106.48,65.69c-6.54-11.27-20.17-30.18-38-30.18S36.91,54.42,30.38,65.69c-9.8,16.9-16.13,37.82-16.13,53.3a10.19,10.19,0,0,0,.23,2.15l.19.12c5.85,4.06,37.51,23.44,86.27,6.5a2,2,0,0,1,1.31,3.78,122.15,122.15,0,0,1-40.17,7.17c-23.89,0-40.23-8.14-47.6-12.79-.15,1.79-.23,3.54-.23,5.21,0,14.09,27.25,21.47,54.18,21.47s54.18-7.38,54.18-21.47V119C122.61,103.51,116.28,82.59,106.48,65.69Z"/><path class="cls-8" d="M102,69C96.26,59,89.81,45.59,70.17,50.88,60.75,53.41,58.39,47,53,49.11c-8.9,3.59-13.49,6.21,3.22,12.33,16.23,6,17.7,20.82,17.09,27.27-2,21.2-15.12,26.33-21.71,29.21-14.2,6.2-32.7-7.35-33.09-10a82.54,82.54,0,0,0-.93,8.63c0,.65,3.56,3.67,3.63,3.72,5.17,3.58,35.71,14.05,80.33,4.7,4.72-1,7.55,1.61,7.77,2.56.47,2-2.31,6.19-8.31,8.23-13.34,4.53-29.45,6.94-39.75,6.94-21.09,0-42.37-10.37-42.37-10.37-.13,1.58,17.86,16.05,49.51,14.72,23.76-1,47.86-7.85,47.86-20.3V116.08C116.29,102.41,110.69,83.93,102,69Z"/><path d="M74.14,30.4v-5a13.32,13.32,0,1,0-11.42,0v5c-4.13,1.4-6.9,4.27-6.9,7.66,0,4.81,5.54,8.57,12.61,8.57S81,42.87,81,38.06C81,34.67,78.26,31.8,74.14,30.4Z"/><circle class="cls-5" cx="68.43" cy="13.32" r="9.99"/><path class="cls-7" d="M68.33,26.65a13.34,13.34,0,0,0,2.38-.27l.15,7.83a2.38,2.38,0,1,1-4.76.09L66,26.48A14.34,14.34,0,0,0,68.33,26.65Z"/><path class="cls-6" d="M68.43,43.3c-5,0-9.28-2.4-9.28-5.24,0-1.63,1.41-3.11,3.57-4.08v.28a5.71,5.71,0,1,0,11.42,0V34c2.15,1,3.57,2.45,3.57,4.08C77.71,40.9,73.46,43.3,68.43,43.3Z"/><circle class="cls-9" cx="68.43" cy="13.32" r="8.46"/><ellipse class="cls-16" cx="68.43" cy="10.04" rx="5.13" ry="3.28"/><path class="cls-15" d="M68.36,28a9.4,9.4,0,0,0,1.69-.19l.12,5.59a1.7,1.7,0,1,1-3.4.07l-.11-5.59A9.52,9.52,0,0,0,68.36,28Z"/><path class="cls-13" d="M68.54,42.34c-5.71,0-8.1-2.54-8.09-4.28s1.9-2.38,1.9-2.38c0,3.33,3.87,5.24,6.19,5.24a5.75,5.75,0,0,0,6.18-5.71c.74.33,2.49,1.85,1.9,3.33C75.67,40.92,72.82,42.34,68.54,42.34Z"/><circle cx="42.26" cy="89.45" r="26.64"/><circle class="cls-6" cx="42.26" cy="89.45" r="23.31"/><circle class="cls-13" cx="42.26" cy="89.45" r="22.36"/><circle class="cls-6" cx="42.26" cy="89.45" r="20.46"/><circle cx="42.26" cy="89.45" r="19.03"/><circle class="cls-17" cx="42.26" cy="89.45" r="15.7"/><circle class="cls-18" cx="42.26" cy="89.45" r="12.74"/><circle class="cls-11" cx="36.78" cy="89.45" r="7.26"/><circle class="cls-18" cx="32.84" cy="89.45" r="1.55"/></g></g></svg>