<svg xmlns="http://www.w3.org/2000/svg" viewBox="0 0 136.38 338.68"><defs><style>.cls-1{fill:#a1e5df;}.cls-1,.cls-10,.cls-2,.cls-3{opacity:0.63;}.cls-2{fill:#bfefe9;}.cls-3{fill:#7fdbd4;}.cls-4{fill:#748c8c;}.cls-5{fill:#1f9390;}.cls-6{fill:#7b84af;}.cls-7{fill:#a5c4c6;}.cls-8{fill:#b8d0d1;}.cls-9{fill:#51bcb7;}.cls-10{fill:#dcf7f3;}.cls-11{fill:#0f4a86;}.cls-12{fill:#1f5b8c;}.cls-13{fill:#8e9abc;}.cls-14{fill:#3374a0;}.cls-15{fill:#bdd1d1;}.cls-16{fill:#87ddd4;}.cls-17{fill:#dfedf7;}.cls-18{fill:#fff;}</style></defs><g id="Layer_2" data-name="Layer 2"><g id="Layer_357" data-name="Layer 357"><ellipse class="cls-1" cx="66.34" cy="316.32" rx="30.45" ry="9.37"/><ellipse class="cls-2" cx="67.06" cy="316.32" rx="23.55" ry="6.66"/><ellipse class="cls-3" cx="66.34" cy="298.71" rx="41.75" ry="12.85"/><ellipse class="cls-1" cx="66.34" cy="297.52" rx="35.57" ry="9.75"/><path d="M3.83,162.65a11.61,11.61,0,0,1,2.41-3.46c.41-.48.83-.94,1.27-1.37a25.42,25.42,0,0,1,12.14-6.15c.89-.32,1.8-.62,2.76-.92C34.25,147.06,50,145,66.64,145s32.4,2,44.23,5.72c1,.31,2,.63,2.89,1a25.29,25.29,0,0,1,11.95,6.11c.33.32.65.65,1,1a11.68,11.68,0,0,1,2.94,4.2c2.43,4.53,3.62,10.38,3.62,17.71,0,27.32-15.37,74-40.08,94.26a8.31,8.31,0,0,1,.59,3c0,3.6-2.41,6.84-6.45,9.33a21.16,21.16,0,0,1-41.33,0c-4-2.48-6.46-5.73-6.46-9.33a8.14,8.14,0,0,1,.7-3.29c-10-8.24-19.32-21.46-26.8-38.27C5.13,217.89,0,196.53,0,180.72,0,173.2,1.26,167.23,3.83,162.65Z"/><path class="cls-4" d="M23.4,153.93c-7.26,2.26-12.51,5.08-15.11,8a18.27,18.27,0,0,0-1.34,2,4.89,4.89,0,0,0-.5,2.09c0,4.23,6.34,8.73,17,12,11.53,3.59,26.88,5.57,43.24,5.57s31.72-2,43.24-5.57c10.62-3.3,17-7.8,17-12a4.64,4.64,0,0,0-.3-1.62,18.46,18.46,0,0,0-2-3c-2.74-2.72-7.79-5.34-14.61-7.46-11.52-3.59-26.88-5.57-43.24-5.57S34.93,150.34,23.4,153.93Z"/><path class="cls-5" d="M66.61,300.62a17.89,17.89,0,0,0,16.57-11.23,45.12,45.12,0,0,1-16.57,2.9,45,45,0,0,1-16.56-2.9A17.86,17.86,0,0,0,66.61,300.62Z"/><path class="cls-6" d="M66.61,289c12.9,0,23.79-5,23.79-10.94a4.31,4.31,0,0,0-.09-.88,47.67,47.67,0,0,1-5.28,3.3C79.56,283.35,72,284,66.61,284c-3.33,0-11.73-.34-17.86-3.51A45.35,45.35,0,0,1,43,276.86a4.56,4.56,0,0,0-.15,1.16C42.82,284,53.72,289,66.61,289Z"/><path class="cls-7" d="M16.43,235.11C25.7,255.94,37.71,271,50.28,277.49c5.48,2.84,13.25,3.14,16.33,3.14,5,0,12-.54,16.85-3.13,12.47-6.64,24.37-21.75,33.51-42.56,8-18.14,12.92-38.91,12.92-54.22a44.09,44.09,0,0,0-1.06-10.24c-2.52,4.14-8.6,7.79-18,10.7C99,184.87,83.33,186.9,66.64,186.9s-32.39-2-44.23-5.72c-9.41-2.93-15.51-6.6-18-10.77a44,44,0,0,0-1.08,10.31C3.33,196.09,8.35,216.93,16.43,235.11Z"/><path class="cls-8" d="M19.76,234.48c8.64,19.44,19.87,33.5,31.6,39.57C56.48,276.7,63.73,277,66.61,277c4.67,0,11.2-.51,15.74-2.93,11.64-6.2,22.75-20.31,31.29-39.74,7.44-16.94,12.06-36.34,12.06-50.64,0-3.62-.66-3.78-9.4-1.06-11,3.44-34.08,6.84-49.66,6.84s-39.2-3.4-50.26-6.84c-8.78-2.74-8.86-2.59-8.86,1.06C7.52,198,12.21,217.5,19.76,234.48Z"/><path class="cls-9" d="M66.61,299.38c5.85,0,10.87-3.23,12.93-7.8a39.14,39.14,0,0,1-12.93,2,39.08,39.08,0,0,1-12.92-2C55.74,296.15,60.76,299.38,66.61,299.38Z"/><ellipse class="cls-2" cx="66.34" cy="332.97" rx="18.56" ry="5.71"/><ellipse class="cls-10" cx="66.78" cy="332.97" rx="14.35" ry="4.06"/><path d="M97.58,268.34a.41.41,0,0,0,.07.11l1.81,2.62a1.49,1.49,0,0,0,1.15.64h.09a1.49,1.49,0,0,0,1.12-.51l7.4-8.41a1.49,1.49,0,0,0,.16-1.77s-.12-.19-.28-.47c26.85-24.21,24.45-59.47,23.78-65.74.93-.45,1.84-.92,2.72-1.4a1.5,1.5,0,0,0,.78-1.31V180a1.5,1.5,0,0,0-2.21-1.32c-7.08,3.83-23.64,12.79-52.09,15a1.51,1.51,0,0,0-1.38,1.4C80.68,195.53,78.42,234.82,97.58,268.34Z"/><path class="cls-11" d="M107.13,256.9a138,138,0,0,1-14.26-50.76c5-.73,21.94-3.54,36.16-9.57C129.69,204.78,130.38,235.3,107.13,256.9Z"/><path class="cls-6" d="M83.65,196.61c25.66-2.24,41.66-9.82,49.73-14.08v8.68c-16.59,8.75-42,12.12-42.29,12.15a1.5,1.5,0,0,0-1.3,1.58,139.92,139.92,0,0,0,16.47,56.69l-5.42,6.16-.69-1C83.42,237.47,83.44,203.58,83.65,196.61Z"/><path class="cls-12" d="M108.09,248.53a104.24,104.24,0,0,1-10.77-38.36c3.75-.55,16.58-2.68,27.32-7.23C125.14,209.15,125.66,232.2,108.09,248.53Z"/><path class="cls-13" d="M85.72,198.24c25.67-2.24,37.3-7.81,45.36-12.08v3.69c-16.59,8.75-40.2,12.07-40.46,12.11-.78.1-2.6,1.36-2.56,2.14,1.76,29.07,13.28,52.27,16,57.14l-3.3,3.93S84.22,232.49,85.72,198.24Z"/><path class="cls-14" d="M109,232.42l9-18.09s3.81-3.33.47,4.76A38.62,38.62,0,0,1,109,232.42Z"/><path class="cls-14" d="M112.74,214.15s-5.71,10.94-8.09,10.94S111.31,213.2,112.74,214.15Z"/><path d="M80.8,152V139a12.85,12.85,0,1,0-25.69,0v13.2c-4.52,1.95-6.67,4.9-6.67,7.73,0,5.2,6.79,10.47,19.75,10.47S87.94,165.15,87.94,160C87.94,157,85.64,154,80.8,152Z"/><path class="cls-7" d="M68.3,141a33,33,0,0,0,9.17-1.32v6.21c-3.16,1-11,2.9-19-1v-5.55A29.59,29.59,0,0,0,68.3,141Z"/><path class="cls-7" d="M68.92,150.62a31,31,0,0,0,8.55-1.23v6.16c-1.9,1.28-8.46,4.69-19-.22v-6.78A26.94,26.94,0,0,0,68.92,150.62Z"/><path class="cls-7" d="M68,129.5a9.52,9.52,0,0,1,9.12,6.82A28.46,28.46,0,0,1,58.94,136,9.54,9.54,0,0,1,68,129.5Z"/><path class="cls-6" d="M68.19,167.09c-11.2,0-16.41-4.26-16.41-7.14,0-1.27,1.07-2.77,3.33-4v.23c0,1.52.79,3.63,4.58,5A24.88,24.88,0,0,0,68,162.42c5.93,0,12.85-1.64,12.85-6.27v-.49c2.58,1.31,3.81,2.94,3.81,4.29C84.61,162.83,79.39,167.09,68.19,167.09Z"/><path class="cls-15" d="M68,130.93a6.19,6.19,0,0,1,5.93,4.43,18.5,18.5,0,0,1-11.79-.22A6.19,6.19,0,0,1,68,130.93Z"/><path class="cls-15" d="M68.22,142.67a37.9,37.9,0,0,0,7-.64v3a30.67,30.67,0,0,1-14.54-.48v-2.67A35.1,35.1,0,0,0,68.22,142.67Z"/><path class="cls-15" d="M68.3,152.81a22.41,22.41,0,0,0,6.92-1.26v3a17.75,17.75,0,0,1-14.54-.48v-2.66A32.27,32.27,0,0,0,68.3,152.81Z"/><path d="M89.5,271.49a6.43,6.43,0,0,0-1.9-8.88l-14-9.05a6.42,6.42,0,1,0-7,10.78l14,9.05A6.43,6.43,0,0,0,89.5,271.49Z"/><path class="cls-6" d="M67.54,257.26a3.1,3.1,0,0,1,4.28-.91l14,9.06a3.09,3.09,0,1,1-3.36,5.19l-14-9.07A3.08,3.08,0,0,1,67.54,257.26Z"/><path d="M98.79,263.88a6.53,6.53,0,0,0,.52-1,6.43,6.43,0,0,0-3.39-8.43h0L80.6,247.94a6.42,6.42,0,0,0-5,11.82l15.32,6.53a6.43,6.43,0,0,0,7.91-2.41Z"/><path class="cls-6" d="M94.61,257.54a3.06,3.06,0,0,1,1.66,1.69,3.08,3.08,0,0,1-1.72,4,3.06,3.06,0,0,1-2.36,0L76.87,256.7a3.11,3.11,0,0,1-1.63-4.06A3.1,3.1,0,0,1,79.29,251Z"/><path d="M100.58,251.24a6.48,6.48,0,0,0,1-2.51,6.44,6.44,0,0,0-5.38-7.32h0l-16.46-2.52a6.42,6.42,0,0,0-1.94,12.7l16.46,2.52a6.47,6.47,0,0,0,6.37-2.87Z"/><path class="cls-6" d="M95.65,244.7a3.11,3.11,0,0,1,2.59,3.52,3.06,3.06,0,0,1-1.23,2,3,3,0,0,1-2.3.57L78.25,248.3a3.1,3.1,0,0,1-2.59-3.53,3,3,0,0,1,1.23-2,3.08,3.08,0,0,1,2.29-.57Z"/><path d="M84.64,226.94a6.42,6.42,0,0,0-8.06-.34A6.42,6.42,0,0,0,74,230.81h0l-2.47,16.47a6.43,6.43,0,0,0,12.71,1.9l2.47-16.47A6.38,6.38,0,0,0,85.56,228,7.41,7.41,0,0,0,84.64,226.94Z"/><path class="cls-6" d="M77.34,231.3a3,3,0,0,1,1.22-2,3.07,3.07,0,0,1,4.32.65,3,3,0,0,1,.57,2.29L81,248.69a3.11,3.11,0,0,1-3.51,2.6,3.09,3.09,0,0,1-2.6-3.52Z"/><ellipse cx="70.46" cy="203" rx="9.99" ry="15.94"/><ellipse class="cls-6" cx="70.46" cy="203" rx="6.66" ry="12.61"/><path d="M45.29,231.71l25.39-20.25A9.28,9.28,0,1,0,59.11,197L33.72,217.2a9.28,9.28,0,0,0,11.57,14.51Z"/><path class="cls-7" d="M61.18,199.56a5.95,5.95,0,1,1,7.42,9.3L43.21,229.1a5.95,5.95,0,0,1-7.42-9.3Z"/><path class="cls-15" d="M52.17,208.57l2.67-2.13c.36,3,3.87,6,5,6.93L57,215.65C53.22,213.14,52.35,210.18,52.17,208.57Z"/><path class="cls-15" d="M64.56,209.64l-2.82,2.25a14.69,14.69,0,0,1-5.36-6.68L59.19,203C60.37,206.39,63.45,208.84,64.56,209.64Z"/><path class="cls-15" d="M47.53,212.27l3.13-2.5a10.23,10.23,0,0,0,4.93,7l-2.48,2C51,217.8,48.35,213.61,47.53,212.27Z"/><path class="cls-15" d="M39.17,218.93l2.48-2c.45,2.89,3.91,6,5.07,6.92L44.06,226C40.33,223.41,39.39,220.51,39.17,218.93Z"/><path class="cls-15" d="M37.77,220.08A10.88,10.88,0,0,0,42.66,227c-2.18,1.29-4.78,1.12-6.1-.53S35.72,221.93,37.77,220.08Z"/><path class="cls-15" d="M43.09,215.81l2.61-2.08a16.31,16.31,0,0,0,5.36,6.67l-2.62,2.09A15.72,15.72,0,0,1,43.09,215.81Z"/><path class="cls-15" d="M61.16,201.41c2.29-1.68,5.22-1.63,6.65.16s.87,4.45-1.08,6.31C64.61,206.93,62,202.76,61.16,201.41Z"/><path d="M90.62,262.19c3.49-5.39,5.54-12.14,5-17.84-.46-5.21-3-9.15-7.21-11.09-13.26-6.16-39.26-11.95-49.84-7a9.77,9.77,0,0,0-4.36,4.68,9.56,9.56,0,0,0-.82,6.52c3.22,11.22,24.42,27.25,37.59,33.37,4.19,1.94,8.86,1.35,13.13-1.66A25.1,25.1,0,0,0,90.62,262.19Z"/><path class="cls-7" d="M37.81,231.33a5.58,5.58,0,0,1,2.2-2.07c8.82-4.11,32.94.48,47,7,3.92,1.82,5,5.55,5.3,8.37.67,7.48-4,17.46-10.11,21.78-2.31,1.62-5.89,3.18-9.81,1.35h0c-14-6.5-33.11-21.89-35.8-31.26a6.58,6.58,0,0,1,.64-4.19A9.54,9.54,0,0,1,37.81,231.33Z"/><path class="cls-8" d="M44.26,234.06a4.22,4.22,0,0,1,1.67-1.58c6.71-3.13,25.08.37,35.81,5.35a7.33,7.33,0,0,1,4,6.37c.51,5.7-3,13.29-7.69,16.58a7.35,7.35,0,0,1-7.48,1h0C59.93,256.87,45.4,245.14,43.35,238a4.92,4.92,0,0,1,.49-3.19A5.08,5.08,0,0,1,44.26,234.06Z"/><circle cx="32.51" cy="231.07" r="12.25"/><circle class="cls-6" cx="32.51" cy="231.07" r="8.92"/><circle cx="98.81" cy="88.71" r="26.64"/><circle class="cls-6" cx="98.81" cy="88.71" r="23.31"/><path d="M10.44,119c0-16,6.51-37.6,16.58-55C38.93,43.49,53.46,32.18,68,32.18S97,43.49,108.88,64c10.08,17.37,16.58,39,16.58,55a14,14,0,0,1-.53,3.78,72.6,72.6,0,0,1,.53,8.36c0,7.91-6.41,14.45-18.54,18.91-10.31,3.8-24.15,5.89-39,5.89S39.29,153.84,29,150c-12.13-4.46-18.54-11-18.54-18.91Z"/><path d="M67.85,144.51c14,0,27-2.09,36.75-5.89,11.44-4.46,17.49-11,17.49-18.91,0-16-6.14-37.6-15.64-55C95.22,44.21,81.51,32.9,67.85,32.9S40.47,44.21,29.24,64.74c-9.5,17.37-15.64,39-15.64,55,0,7.91,6,14.45,17.49,18.91C40.81,142.42,53.87,144.51,67.85,144.51Z"/><path class="cls-7" d="M29.9,65.69C36.44,54.42,50.07,35.51,68,35.51S99.47,54.42,106,65.69c9.8,16.9,16.13,37.82,16.13,53.3a10.19,10.19,0,0,1-.23,2.15l-.19.12c-5.85,4.06-37.51,23.44-86.27,6.5a2,2,0,0,0-1.31,3.78,122.15,122.15,0,0,0,40.17,7.17c23.89,0,40.23-8.14,47.6-12.79.15,1.79.23,3.54.23,5.21,0,14.09-27.25,21.47-54.18,21.47s-54.18-7.38-54.18-21.47V119C13.77,103.51,20.1,82.59,29.9,65.69Z"/><path class="cls-8" d="M34.34,69c5.78-10,12.23-23.41,31.87-18.12C75.63,53.41,78,47,83.34,49.11c8.9,3.59,13.49,6.21-3.22,12.33-16.23,6-17.7,20.82-17.09,27.27,2,21.2,15.12,26.33,21.71,29.21,14.2,6.2,32.7-7.35,33.09-10a82.54,82.54,0,0,1,.93,8.63c0,.65-3.56,3.67-3.63,3.72C110,123.9,79.42,134.37,34.8,125c-4.72-1-7.55,1.61-7.77,2.56-.47,2,2.31,6.19,8.31,8.23,13.34,4.53,29.46,6.94,39.75,6.94,21.09,0,42.37-10.37,42.37-10.37C117.59,134,99.6,148.43,68,147.1c-23.76-1-47.86-7.85-47.86-20.3V116.08C20.09,102.41,25.69,83.93,34.34,69Z"/><path d="M62.24,30.4v-5a13.32,13.32,0,1,1,11.42,0v5c4.13,1.4,6.9,4.27,6.9,7.66,0,4.81-5.54,8.57-12.61,8.57s-12.61-3.76-12.61-8.57C55.34,34.67,58.12,31.8,62.24,30.4Z"/><circle class="cls-5" cx="67.95" cy="13.32" r="9.99"/><path class="cls-7" d="M68.05,26.65a13.34,13.34,0,0,1-2.38-.27l-.15,7.83a2.38,2.38,0,1,0,4.76.09l.15-7.82A14.34,14.34,0,0,1,68.05,26.65Z"/><path class="cls-6" d="M68,43.3c5,0,9.28-2.4,9.28-5.24,0-1.63-1.41-3.11-3.57-4.08v.28a5.71,5.71,0,1,1-11.42,0V34c-2.15,1-3.57,2.45-3.57,4.08C58.67,40.9,62.92,43.3,68,43.3Z"/><circle class="cls-9" cx="67.95" cy="13.32" r="8.46"/><ellipse class="cls-16" cx="67.95" cy="10.04" rx="5.13" ry="3.28"/><path class="cls-15" d="M68,28a9.4,9.4,0,0,1-1.69-.19l-.11,5.59a1.7,1.7,0,1,0,3.39.07l.11-5.59A9.52,9.52,0,0,1,68,28Z"/><path class="cls-13" d="M67.85,42.34c5.7,0,8.09-2.54,8.08-4.28S74,35.68,74,35.68c0,3.33-3.87,5.24-6.18,5.24a5.75,5.75,0,0,1-6.19-5.71c-.74.33-2.49,1.85-1.9,3.33C60.71,40.92,63.56,42.34,67.85,42.34Z"/><circle cx="94.12" cy="89.45" r="26.64"/><circle class="cls-6" cx="94.12" cy="89.45" r="23.31"/><circle class="cls-13" cx="94.12" cy="89.45" r="22.36"/><circle class="cls-6" cx="94.12" cy="89.45" r="20.46"/><circle cx="94.12" cy="89.45" r="19.03"/><circle class="cls-17" cx="94.12" cy="89.45" r="15.7"/><circle class="cls-18" cx="94.12" cy="89.45" r="12.74"/><circle class="cls-11" cx="99.6" cy="89.45" r="7.26"/><circle class="cls-18" cx="103.54" cy="89.45" r="1.55"/></g></g></svg>